<svg id="Laag_1" data-name="Laag 1"
    xmlns="http://www.w3.org/2000/svg" viewBox="0 0 84.8 168.07">
    <title>pim-peeking-sub</title>
    <g id="Group_882" data-name="Group 882">
        <path id="Path_907" data-name="Path 907" d="M43.11,138.93s-.47,15.46,4.11,27.8c1,2.74,3.84,2.54,7.05,1.37a180.31,180.31,0,0,0,25.25-11.75L78,150.87s-22.9,7.44-23.68,8.62c.78-1.18,1.57-18.4,1.57-18.4Z" transform="translate(-0.46 -0.85)" fill="#fdd5c8" fill-rule="evenodd"/>
        <g id="Group_880" data-name="Group 880">
            <path id="Path_908" data-name="Path 908" d="M41.61,141.38l1.5.36,12.54,3,1.77.43s0-.12,0-.32c0-1.25.36-6,1.92-8a2,2,0,0,1,.27-.31l.06-.07,0,0a1.92,1.92,0,0,1,.32-.26c.76-.5,1.72-.46,3,.47l.8.62.46.37.27.22.5.41.67.58.72.63q1.11,1,2.4,2.25A114.39,114.39,0,0,1,77.24,151l0,.06c.38.46.76.93,1.14,1.42,1.44,1.81,2.94,3.81,4.52,6,.76,1.05,1.53,2.15,2.32,3.29V92.4a14.69,14.69,0,0,0-7.1,1.23,13.27,13.27,0,0,0-1.17.64l-.4.26-.36.26c-1.75,1.33-4.71,3.81-8.28,6.93-2.13,1.86-4.49,3.94-6.94,6.14l-1.51,1.35-.5.45h0l-2.45,2.21-.75.68L54.2,114l-.6.55-.64.58-.27.25-.19.17-2,1.79-.68.62-.83.76-.28.26s0,0,0,0l-.3.29-.35.36c-.16.16-.33.34-.48.51l0,0c-.36.4-.69.8-1,1.21l0,0c-.24.31-.46.62-.68.93a25,25,0,0,0-3.81,9.12h0c-.13.62-.24,1.24-.33,1.83,0,.3-.08.6-.11.88s0,.38-.07.56A29.49,29.49,0,0,0,41.61,141.38Z" transform="translate(-0.46 -0.85)" fill="#b03c3c" fill-rule="evenodd"/>
            <path id="Path_909" data-name="Path 909" d="M41.61,141.38l1.5.36,12.54,3,1.77.43s0-.12,0-.32c0-1.26.35-6,1.92-8a2.61,2.61,0,0,1,.27-.31l.06-.07,0,0a2.6,2.6,0,0,1,.32-.26c.76-.48,1.72-.45,3,.48.25.18.52.4.8.61l.46.37.27.22.5.41.67.58.72.63c.74.67,1.54,1.41,2.4,2.25A114.26,114.26,0,0,1,77.24,151l.05.06h0l1.12,1.4c1.45,1.83,3,3.83,4.54,6,.76,1.05,1.53,2.13,2.3,3.26V135l-21-23.45-1.78-2-.08-.08L61,107.86h0l-1.48,1.34-.52.46-2.45,2.23-.76.68L54.19,114l-.59.54-.64.58-.27.25-.19.17-2,1.79-.67.61-.8.74-.31.29,0,0-.3.29-.35.35c-.16.17-.32.34-.47.52l0,0c-.35.4-.68.8-1,1.21,0,0,0,0,0,0-.24.3-.46.61-.68.93a25,25,0,0,0-3.81,9.11h0c-.13.62-.24,1.23-.33,1.82l-.12.89-.06.56A29.4,29.4,0,0,0,41.61,141.38Z" transform="translate(-0.46 -0.85)" fill="#c84444" fill-rule="evenodd"/>
        </g>
        <path id="Path_910" data-name="Path 910" d="M42.13,93.2l10.22-7.67s10.92,18.28,18.28,16.25c0,0,0,4.66-6.46,9.82s-11.23,3.53-11.23,3.53C56.74,108.35,42.13,93.2,42.13,93.2Z" transform="translate(-0.46 -0.85)" fill="#ffd9cd" fill-rule="evenodd"/>
        <g id="Group_881" data-name="Group 881">
            <path id="Path_911" data-name="Path 911" d="M52.28,100.39C67.6,98.23,80.09,70.45,77.5,52S58.75,20.61,41.41,23,12.12,42.4,14.71,60.87,37,102.54,52.28,100.39Z" transform="translate(-0.46 -0.85)" fill="#eec4b8" fill-rule="evenodd"/>
            <path id="Path_912" data-name="Path 912" d="M52.52,100.38l-.25,0C37,102.58,17.28,79.34,14.7,60.87S24.07,25.46,41.4,23l.24,0,10.87,77.39Z" transform="translate(-0.46 -0.85)" fill="#ffd9ce" fill-rule="evenodd"/>
            <path id="Path_913" data-name="Path 913" d="M60.42,10.09C74.71,23.21,74,32,74,32s4.41,12.24,3.47,21.16c0,0-4.75-16.28-10.2-17.72,0,0-25.22,13.81-50.21,7.92,0,0-2.92,15.72-1.54,20,0,0-13.3-23-10.25-36.55,0,0-6.4-12.95-4.36-19.31,0,0,8.12,6.91,15.7,5.85,0,0-6.21-5.3-5.36-11.63-.08,0,34.93-4.7,49.22,8.42Z" transform="translate(-0.46 -0.85)" fill="#cb693a" fill-rule="evenodd"/>
            <path id="Path_914" data-name="Path 914" d="M48.34,3.77A31.32,31.32,0,0,1,65.26,20.14C59.15,13.83,54,16.27,54,16.27c4.2-.08,8.8,5.7,8.8,5.7-8.57,4.41-23.73,4.57-23.73,4.57,3.6,2,13.62,1.8,13.62,1.8-7.05,1.5-24.66.77-24.66.77,7.2,3.94,20,5.38,20,5.38-16.33,4.27-32.48-.65-32.48-.65-5.56,8.35-1,26.82-.4,29.52C14.33,58.65,17,43.68,17,43.68c25,5.89,50.43-8,50.43-8,5.45,1.48,10.16,18.55,10.16,18.55,1.59-6.82-1.27-31.45-16.5-44.35-3.5-3.18-10.47-5.66-12.74-6.06Z" transform="translate(-0.46 -0.85)" fill="#a3552f" fill-rule="evenodd"/>
            <path id="Path_915" data-name="Path 915" d="M34.15,92.66C43.53,96.78,50,96,47.91,89.57a11.15,11.15,0,0,0,6.29-.89s-1,5.7,3.81,4.64S78,76.76,77.77,57.08c0,0,3.49,22.16-.13,35.25S60,109.85,59.17,112.11a4.37,4.37,0,0,1,.67-3.39s-5.68,3.28-6.45,7.36a9.11,9.11,0,0,1-3-6.2s-1.37,3-.61,4.39c0,0-18.49-5.49-25.8-16.2s-8.2-32.27-8.2-32.27,9,22.74,18.37,26.86Z" transform="translate(-0.46 -0.85)" fill="#cb693a" fill-rule="evenodd"/>
            <path id="Path_916" data-name="Path 916" d="M70.05,98.53a69.73,69.73,0,0,1-8.29,7.26,25.81,25.81,0,0,1,2.66-3.5s-9,3.24-11.34,7.85c0,0,0-3.31,1.47-4.81,0,0-5.78.33-7,5.61,0,0-17.83-5.07-23.89-12.84,7.31,10.71,25.83,16.2,25.83,16.2-.75-1.37.62-4.38.62-4.38a9.22,9.22,0,0,0,3,6.19c.77-4.08,6.45-7.36,6.45-7.36a4.43,4.43,0,0,0-.68,3.43c.83-2.26,14.82-6.74,18.47-19.78s.37-34.66.37-34.66.21,3.82.24,9c0,8.22-.59,19.92-3.65,25.1,0,0,.19-3.34.07-5.29,0,0-.26,7.79-4.3,12Z" transform="translate(-0.46 -0.85)" fill="#a3552f" fill-rule="evenodd"/>
            <path id="Path_917" data-name="Path 917" d="M41.33,65.48c-1.11-3.6-3.9-6-6.77-5.57s-4.87,3.46-5,7.24A7.44,7.44,0,0,1,35,62.89,7.29,7.29,0,0,1,41.33,65.48Z" transform="translate(-0.46 -0.85)" fill="#333" fill-rule="evenodd"/>
            <path id="Path_918" data-name="Path 918" d="M57.75,72.73c.53,5.21-2.78,9.93-7.58,10.6S41.07,80.55,40,75.58a19.16,19.16,0,0,0,8.83.73,19.36,19.36,0,0,0,8.89-3.58Z" transform="translate(-0.46 -0.85)" fill="#f2f2f2" fill-rule="evenodd"/>
            <path id="Path_919" data-name="Path 919" d="M50.17,83.33H50c-4.72.65-9.1-2.78-10.14-7.75a19.43,19.43,0,0,0,8.83.73,2,2,0,0,0,.49-.09l1,7.1Z" transform="translate(-0.46 -0.85)" fill="#fff" fill-rule="evenodd"/>
            <path id="Path_920" data-name="Path 920" d="M65.17,62.11c-1.12-3.6-3.9-6-6.77-5.58s-4.87,3.47-5,7.25a7.44,7.44,0,0,1,5.38-4.26A7.26,7.26,0,0,1,65.17,62.11Z" transform="translate(-0.46 -0.85)" fill="#333" fill-rule="evenodd"/>
        </g>
        <path id="Path_921" data-name="Path 921" d="M76.78,89.21a7.81,7.81,0,0,0,.59,3c.06.14.12.28.19.42a7,7,0,0,0,.61,1A6,6,0,0,0,83,96.26a5.62,5.62,0,0,0,2.22-.46V82.62A5.61,5.61,0,0,0,83,82.17a5.84,5.84,0,0,0-4,1.63l-.3.3A7.47,7.47,0,0,0,76.78,89.21Z" transform="translate(-0.46 -0.85)" fill="#ffd9cd" fill-rule="evenodd"/>
        <path id="Path_922" data-name="Path 922" d="M77.17,152a6.86,6.86,0,0,0,1.74,4.65,5.29,5.29,0,0,0,3.94,1.81H83a4.91,4.91,0,0,0,2.3-.61V146.2a5.07,5.07,0,0,0-2.41-.61A6,6,0,0,0,77.24,151h0s0,.05,0,.08A7.26,7.26,0,0,0,77.17,152Z" transform="translate(-0.46 -0.85)" fill="#ffd9cd" fill-rule="evenodd"/>
    </g>
</svg>